<?xml version="1.0" standalone="no"?>
<svg viewBox="0 0 200 200" xmlns="http://www.w3.org/2000/svg">
  <path fill="#8A3FFC" d="M41.4,-58.2C51.6,-57.8,56.7,-43,64.4,-28.6C72.1,-14.3,82.5,-0.5,79.7,10.7C76.9,21.9,61,30.5,48.9,39.9C36.9,49.4,28.7,59.8,18.7,62C8.6,64.3,-3.4,58.4,-14,52.9C-24.6,47.5,-33.8,42.4,-47.3,35.9C-60.9,29.5,-78.7,21.7,-77.7,12.6C-76.8,3.6,-57,-6.7,-47.8,-19.7C-38.6,-32.8,-40,-48.6,-33.8,-50.9C-27.6,-53.2,-13.8,-42,0.9,-43.3C15.5,-44.7,31.1,-58.6,41.4,-58.2Z" transform="translate(100 100)" />
</svg>
