<?xml version="1.0" standalone="no"?>
<svg viewBox="0 0 200 200" xmlns="http://www.w3.org/2000/svg">
  <path fill="#8A3FFC" d="M45.2,-64.3C60,-60.7,74.6,-50.7,74.5,-37.9C74.5,-25,59.7,-9.3,52.4,4.1C45.1,17.4,45.3,28.4,40.8,37.8C36.4,47.3,27.5,55.2,17.9,55.6C8.3,55.9,-1.9,48.6,-13,45C-24.1,41.4,-36,41.5,-41.5,35.7C-46.9,29.9,-45.9,18.2,-47.2,7C-48.4,-4.1,-51.9,-14.7,-50.6,-25.4C-49.3,-36.1,-43.2,-46.9,-34,-53C-24.7,-59.2,-12.4,-60.7,1.4,-62.8C15.2,-65,30.3,-67.9,45.2,-64.3Z" transform="translate(100 100)" />
</svg>
